<svg viewBox="0 0 171 22.8"><path d="M9.334 6.864c.043.386.12.986.58 1.135.31.095.588.095.695.095.052 0 .084.01.084.054 0 .063-.096.096-.225.096H9.376c-.278 0-.545.01-.695 0-.246-.023-.332-.045-.332-.13 0-.043.074-.064.13-.075.05-.01.04-.232.02-.426l-.515-5.52h-.03L5.33 7.656c-.223.47-.255.566-.352.566-.075 0-.127-.107-.33-.492-.28-.523-1.2-2.372-1.254-2.48A166.347 166.347 0 011.98 2.2h-.043L1.51 7.165c-.01.172-.01.364-.01.545 0 .16.117.3.277.33.182.042.343.055.407.055.043 0 .086.02.086.054 0 .073-.065.096-.193.096-.396 0-.91-.033-.996-.033-.095 0-.61.033-.898.033-.106 0-.182-.023-.182-.098 0-.033.054-.054.107-.054.086 0 .16 0 .32-.032.354-.063.387-.48.43-.888L1.626.2c.022-.117.055-.19.12-.19.062 0 .105.043.16.16L5.18 6.897 8.328.18c.043-.097.086-.17.16-.17.076 0 .108.085.13.288l.716 6.566zm3.278 1.318c-.054.352.12.394.257.17l.127-.17.888-1.147c1.328-1.732 2.73-3.41 4.143-5.06.096-.116.15-.05.15.077v3.09c0 1.026 0 1.872-.054 2.32-.043.312-.096.547-.31.59a1.66 1.66 0 01-.32.042c-.066 0-.087.03-.087.064 0 .063.054.086.17.086.322 0 .998-.033 1.05-.033.054 0 .73.034 1.317.034.118 0 .17-.033.17-.086 0-.033-.02-.064-.085-.064-.097 0-.332-.022-.482-.042-.32-.043-.385-.278-.417-.59-.052-.448-.052-1.294-.052-2.32V.31c.053-.355-.12-.397-.257-.17a147.792 147.792 0 01-5.21 6.38c-.043.054-.096.042-.096-.042 0-3.53 0-5.188.02-5.53.022-.373.108-.556.397-.61.127-.02.19-.03.266-.03.043 0 .086-.023.086-.064 0-.064-.055-.085-.172-.085-.322 0-.996.032-1.05.032-.052 0-.727-.03-1.208-.03-.12 0-.172.02-.172.084 0 .04.043.064.086.064.096 0 .278.01.363.03.353.074.438.248.46.61.02.343 0 .644.02 2.31v4.922zm16.744-4.92c0-1.668 0-1.97.02-2.312.022-.373.108-.556.397-.61.13-.02.193-.03.268-.03.044 0 .087-.023.087-.064 0-.064-.054-.085-.172-.085-.32 0-.995.032-1.05.032-.052 0-.727-.03-1.21-.03-.117 0-.17.02-.17.084 0 .04.043.064.086.064.097 0 .278.01.365.03.353.074.438.248.46.61.02.343.02.76.02 2.43v.224c0 .053-.032.063-.064.063h-4.537c-.032 0-.064-.01-.064-.063V3.38c0-1.67 0-2.087.02-2.43.022-.373.108-.556.397-.61.128-.02.192-.03.268-.03.043 0 .085-.023.085-.064 0-.064-.053-.085-.17-.085-.322 0-.996.032-1.05.032-.053 0-.73-.03-1.21-.03-.118 0-.17.02-.17.084 0 .04.042.064.085.064.096 0 .278.01.363.03.354.074.44.248.46.61.022.343.022.644.022 2.31v1.884c0 1.025 0 1.87-.054 2.32-.043.31-.096.546-.31.59a1.702 1.702 0 01-.322.04c-.064 0-.086.032-.086.065 0 .062.054.086.172.086.32 0 .996-.034 1.048-.034.055 0 .73.034 1.317.034.118 0 .17-.034.17-.087 0-.034-.02-.065-.085-.065-.096 0-.332-.022-.482-.042-.32-.043-.385-.278-.418-.59-.053-.448-.053-1.294-.053-2.32V4.14c0-.057.032-.066.064-.066h4.54c.03 0 .063.023.063.065v1.004c0 1.025 0 1.87-.053 2.32-.044.31-.096.546-.31.59a1.68 1.68 0 01-.323.04c-.064 0-.085.032-.085.065 0 .062.053.086.17.086.323 0 .997-.034 1.05-.034.054 0 .73.034 1.317.034.116 0 .17-.034.17-.087 0-.034-.02-.065-.086-.065a4.97 4.97 0 01-.48-.042c-.323-.043-.387-.278-.42-.59-.052-.448-.052-1.294-.052-2.32V3.262zm3.813 4.92c-.055.352.116.394.255.17l.13-.17.887-1.147c1.33-1.732 2.73-3.41 4.144-5.06.096-.116.15-.05.15.077v3.09c0 1.026 0 1.872-.054 2.32-.043.312-.096.547-.31.59a1.682 1.682 0 01-.322.042c-.065 0-.085.03-.085.064 0 .063.052.086.17.086.32 0 .995-.033 1.05-.033.052 0 .727.034 1.315.034.118 0 .172-.033.172-.086 0-.033-.022-.064-.086-.064-.097 0-.332-.022-.482-.042-.32-.043-.386-.278-.418-.59-.054-.448-.054-1.294-.054-2.32V.31c.054-.355-.118-.397-.256-.17a146.298 146.298 0 01-5.213 6.382c-.043.054-.096.042-.096-.042 0-3.53 0-5.188.02-5.53.023-.373.11-.556.398-.61.128-.02.193-.03.267-.03.043 0 .086-.023.086-.064 0-.064-.053-.085-.17-.085-.322 0-.997.032-1.05.032-.054 0-.73-.03-1.21-.03-.118 0-.172.02-.172.084 0 .04.043.064.086.064.096 0 .28.01.364.03.353.074.44.248.46.61.022.343 0 .644.022 2.31v4.922zm8.68-4.11c0 2.47 1.563 4.322 4.828 4.322.686 0 1.5-.076 1.927-.246.193-.086.214-.107.28-.312.106-.362.235-1.294.235-1.367 0-.088-.022-.162-.075-.162-.064 0-.085.043-.107.16-.033.193-.17.663-.396.898-.43.44-1.06.534-1.864.534-2.29 0-3.863-1.87-3.863-3.914 0-1.893.674-3.573 3.426-3.573 1.34 0 2.59.45 2.59 1.702 0 .15.01.225.087.225.085 0 .107-.16.107-.675 0-.62.074-1.132.074-1.252 0-.062-.02-.116-.138-.116-.407 0-1.37-.288-2.645-.288-3.405 0-4.465 2.353-4.465 4.063M54.346.62l1.348.02c1.028.022 1.274.268 1.317.588l.01.117c.012.15.033.183.087.183.042 0 .074-.042.074-.14 0-.117.032-.855.032-1.177 0-.063 0-.128-.052-.128-.086 0-.375.108-1.06.108h-4.014c-.13 0-.535-.023-.846-.052-.29-.023-.396-.13-.47-.13-.044 0-.087.138-.108.202-.022.086-.236 1.006-.236 1.11 0 .065.02.1.053.1.042 0 .075-.022.106-.107.033-.074.064-.15.183-.334.17-.255.427-.33 1.09-.342l1.585-.02v4.524c0 1.025 0 1.87-.053 2.32-.043.31-.096.546-.31.59a1.682 1.682 0 01-.32.04c-.066 0-.087.032-.087.065 0 .063.054.087.172.087.32 0 .996-.034 1.048-.034.053 0 .728.034 1.317.034.118 0 .172-.034.172-.087 0-.033-.022-.064-.086-.064a5.04 5.04 0 01-.48-.042c-.323-.042-.386-.277-.42-.588-.052-.45-.052-1.295-.052-2.32V.62zm6.017.063c0-.074.022-.095.064-.095.213 0 1.178.032 1.242.032.63 0 .888.215.952.352.064.138.096.32.096.406 0 .073.022.116.076.116.053 0 .074-.053.085-.107.02-.128.042-.596.052-.705.032-.3.086-.427.086-.5 0-.054-.022-.12-.065-.12s-.086.043-.15.067a5.533 5.533 0 01-.47.04c-.173.012-1.264.022-2.42.022-.054 0-.728-.03-1.21-.03-.117 0-.17.02-.17.084 0 .04.042.064.084.064.097 0 .28.01.365.03.352.074.417.237.45.495.02.18.03.63.03 2.426v1.884c0 1.305-.02 2.17-.073 2.448-.066.31-.12.407-.29.46a1.233 1.233 0 01-.322.043c-.065 0-.086.03-.086.064 0 .062.053.085.17.085.238 0 .772-.033 1.05-.033.31 0 1.028.064 2.645.064.417 0 .502 0 .577-.277.054-.226.14-.952.14-1.04 0-.073 0-.16-.064-.16-.054 0-.076.044-.096.16-.076.44-.205.654-.482.77-.28.12-.75.12-1.028.12-1.05 0-1.242-.17-1.242-.878V4.2c0-.043.022-.075.076-.075.18 0 1.24.023 1.53.053.417.043.514.226.557.374.043.14.043.248.043.354 0 .053.02.095.075.095.064 0 .074-.085.074-.2 0-.526.128-1.243.128-1.285 0-.065-.02-.087-.053-.087-.043 0-.086.057-.16.143-.098.103-.248.128-.504.148-.247.023-1.563.023-1.702.023-.053 0-.064-.032-.064-.108V.683zm5.632 4.46c0 1.025 0 1.87-.055 2.32-.042.31-.095.546-.31.59a1.67 1.67 0 01-.32.04c-.065 0-.087.032-.087.065 0 .063.055.086.172.086.32 0 .996-.033 1.028-.033.054 0 .728.034 1.316.034.116 0 .17-.033.17-.086 0-.033-.02-.064-.085-.064a4.97 4.97 0 01-.48-.042c-.323-.043-.386-.278-.42-.59-.052-.448-.052-1.294-.052-2.32V.75c0-.108.02-.18.086-.205.095-.042.276-.063.458-.063.247 0 .9-.042 1.467.535.567.578.6 1.293.6 1.646 0 .983-.815 1.744-1.852 1.744-.226 0-.29.01-.29.096 0 .053.064.076.12.076.052.01.17.01.223.01 1.52 0 2.633-1.027 2.633-2.546 0-.565-.3-1.05-.537-1.273-.17-.158-.652-.607-1.99-.607-.493 0-1.114.03-1.35.03-.086 0-.728-.03-1.21-.03-.117 0-.17.022-.17.085 0 .04.042.064.085.064.096 0 .28.01.365.03.353.073.438.247.46.61.02.342.02.643.02 2.31v1.883zm5.653-1.07c0 2.47 1.563 4.32 4.828 4.32.685 0 1.5-.075 1.926-.245.193-.086.214-.107.28-.312.106-.362.234-1.294.234-1.367 0-.088-.022-.162-.075-.162-.063 0-.085.043-.107.16-.032.193-.17.663-.395.898-.428.44-1.06.534-1.863.534-2.29 0-3.864-1.87-3.864-3.914 0-1.893.675-3.573 3.427-3.573 1.338 0 2.59.45 2.59 1.702 0 .15.01.225.086.225.085 0 .107-.16.107-.675 0-.62.074-1.132.074-1.252 0-.062-.02-.116-.14-.116-.406 0-1.37-.288-2.644-.288-3.403 0-4.462 2.353-4.462 4.063M83.766.62l1.35.02c1.027.022 1.273.268 1.316.588l.01.117c.013.15.032.183.087.183.04 0 .074-.042.074-.14 0-.117.03-.855.03-1.177 0-.063 0-.128-.052-.128-.086 0-.376.108-1.06.108h-4.014c-.13 0-.535-.023-.847-.052-.287-.023-.394-.13-.47-.13-.042 0-.085.138-.106.202-.022.086-.237 1.006-.237 1.11 0 .065.023.1.054.1.043 0 .076-.022.108-.107.033-.074.064-.15.183-.334.17-.255.43-.33 1.092-.342l1.584-.02v4.524c0 1.025 0 1.87-.053 2.32-.043.31-.097.546-.31.59a1.682 1.682 0 01-.322.04c-.063 0-.084.032-.084.065 0 .063.052.087.17.087.322 0 .996-.034 1.05-.034.053 0 .728.034 1.317.034.118 0 .17-.034.17-.087 0-.033-.02-.064-.085-.064a5.04 5.04 0 01-.48-.042c-.323-.042-.387-.277-.42-.588-.053-.45-.053-1.295-.053-2.32V.62zm9.72 5.323c0 1.147-.9 2.333-2.73 2.333-.245 0-1.337-.064-1.422-.064-.054 0-.73.033-1.05.033-.116 0-.17-.023-.17-.086 0-.034.02-.065.085-.065.096 0 .223-.013.32-.042.17-.054.224-.15.288-.46.055-.28.076-1.145.076-2.45v-1.88c0-1.795-.012-2.244-.032-2.425-.032-.258-.097-.42-.45-.494a2.01 2.01 0 00-.364-.03c-.043 0-.085-.023-.085-.064 0-.064.053-.085.17-.085.482 0 1.157.032 1.21.032.258 0 .674-.03 1.168-.03 1.757 0 2.142 1.067 2.142 1.6 0 .878-.504 1.402-1.006 1.927.792.244 1.85 1.003 1.85 2.253m-3.746-2.45c0 .076.02.096.074.117.064.01.258.043.655.043.598 0 .747-.02.972-.277.225-.258.386-.645.386-1.083 0-.887-.396-1.838-1.445-1.838-.118 0-.343.01-.514.05-.097.024-.13.057-.13.12v2.866zm2.827 2.92c0-.642-.215-1.594-1.04-2.16-.417-.28-.76-.32-1.145-.32-.633 0-.643.01-.643.084v2.6c0 .803.042.995.374 1.155.29.14.75.16.942.16.58-.002 1.51-.31 1.51-1.52m10.5-2.396c0 2.396-1.69 4.374-4.27 4.374-2.933 0-4.153-2.28-4.153-4.203 0-1.732 1.262-4.18 4.217-4.18 2.41 0 4.207 1.518 4.207 4.01m-1.027.298c0-2.565-1.563-3.944-3.255-3.944C97 .374 95.66 1.55 95.66 3.89c0 2.493 1.497 4.098 3.425 4.098.963 0 2.955-.557 2.955-3.67m7.1.825c0 1.025 0 1.87-.055 2.32-.042.31-.097.546-.31.59a1.682 1.682 0 01-.32.04c-.064 0-.087.032-.087.065 0 .063.054.086.172.086.32 0 .94-.033 1.027-.033.086 0 .706.034 1.23.034.118 0 .17-.033.17-.086 0-.033-.02-.064-.084-.064a4.02 4.02 0 01-.418-.042c-.32-.043-.386-.278-.417-.59-.072-.615-.055-1.226-.055-2.32V4.097h.055c.515.63 2.783 3.08 3.265 3.475.46.364.73.598 1.295.653.237.023.44.023.74.023h.545c.182 0 .236-.033.236-.086 0-.044-.065-.064-.14-.064-.076 0-.387-.022-.665-.14-.514-.213-.695-.385-1.595-1.22-.44-.406-2.664-2.705-2.943-3.015.224-.268 2.086-2.084 2.354-2.34.482-.46.718-.728 1.157-.92.215-.097.438-.15.6-.15.086 0 .106-.023.106-.076 0-.052-.043-.073-.16-.073-.27 0-.975.032-1.028.032-.257 0-.588-.03-.802-.03-.076 0-.13.02-.13.072 0 .043.044.065.1.087.083.033.137.095.137.224 0 .184-.278.463-.577.77-.386.418-2.322 2.387-2.507 2.59h-.043V3.26c0-1.666 0-1.967.024-2.31.02-.373.104-.556.395-.61.13-.02.192-.03.268-.03.042 0 .085-.023.085-.064 0-.064-.054-.085-.17-.085-.322 0-.942.032-1.04.032-.06 0-.695-.03-1.177-.03-.117 0-.17.02-.17.084 0 .04.04.064.084.064.098 0 .278.01.364.03.353.074.438.248.46.61.02.343.02.644.02 2.31v1.883zm11.212 2.28c-.29.744-.524 1.26-1.048 1.26-.42 0-.73-.49-.73-1.058 0-.16 0-.202-.073-.202-.02 0-.053 0-.074.106-.054.34-.074.973-.065 1.335 0 .128.055.205.162.27.203.116.567.18.74.18.565 0 1.08-.556 1.453-1.477l2.622-6.395c.3-.736.482-.908.633-1.004.202-.13.438-.13.515-.13.085 0 .128-.023.128-.076.01-.052-.055-.073-.17-.073-.312 0-.772.032-.837.032-.13 0-.62-.03-1.05-.03-.17 0-.233.02-.245.084 0 .053.056.064.12.064.117 0 .276 0 .405.043.107.054.13.158.13.245l-.16.504c-.28.845-1.457 3.9-2.058 5.4L118.34 1.4c-.173-.363-.268-.693-.268-.822 0-.076.02-.163.138-.214.098-.043.29-.054.407-.054.074 0 .108-.023.108-.076 0-.052-.098-.073-.29-.073-.406 0-.887.032-.995.032-.13 0-.738-.03-1.253-.03-.17 0-.277.008-.277.072 0 .043.02.076.086.076.063 0 .246 0 .406.043.374.106.482.245.77.822l3.18 6.247zm5.738-2.793l.942-2.888c.053-.16.105-.16.16 0l1.017 2.888.19.524.996 2.63c.064.17 0 .268-.064.29-.042.008-.074.03-.074.074 0 .064.118.064.32.074.738.023 1.52.023 1.68.023.12 0 .215-.023.215-.086 0-.055-.043-.065-.107-.065a1.43 1.43 0 01-.428-.065c-.226-.063-.536-.234-.922-1.186-.653-1.628-2.332-6.043-2.493-6.45-.13-.33-.172-.384-.234-.384-.066 0-.11.065-.238.416l-2.43 6.644c-.19.533-.406.94-.898 1.004a3.925 3.925 0 01-.31.022c-.055 0-.098.02-.098.064 0 .063.064.086.203.086.503 0 1.09-.033 1.21-.033.118 0 .577.033.833.033.098 0 .162-.023.162-.086 0-.044-.033-.064-.106-.064h-.11c-.18 0-.405-.096-.405-.31 0-.193.055-.45.15-.716l.835-2.44zm11.517 1.313c0 1.147-.898 2.333-2.728 2.333-.247 0-1.34-.064-1.427-.064-.05 0-.728.033-1.047.033-.118 0-.172-.023-.172-.086 0-.034.02-.065.085-.065.096 0 .225-.022.32-.042.214-.043.27-.278.31-.59.057-.448.057-1.294.057-2.32v-1.88l-.024-2.31c-.01-.362-.18-.544-.415-.598a1.422 1.422 0 00-.333-.043c-.044 0-.086-.024-.086-.065 0-.064.053-.085.17-.085.354 0 1.03.03 1.083.03.05 0 .728-.03 1.048-.03.12 0 .173.022.173.085 0 .04-.043.064-.085.064-.076 0-.14.01-.27.03-.29.054-.374.236-.395.61l-.013 2.545c0 .076.022.096.076.117.065.01.257.043.653.043 1.135 0 3.017.32 3.017 2.288m-.92.473c0-.642-.213-1.594-1.038-2.16-.61-.418-.973-.31-1.637-.31-.118 0-.15.084-.15.158v.526c0 .823 0 2.148.012 2.31.032.524.032.675.362.835.29.14.75.16.943.16.58-.002 1.508-.31 1.508-1.52m5.2-5.795l1.35.02c1.03.022 1.274.268 1.317.588l.01.117c.01.15.033.183.086.183.044 0 .077-.042.077-.14 0-.117.03-.855.03-1.177 0-.063 0-.128-.053-.128-.086 0-.376.108-1.06.108h-4.015c-.13 0-.536-.023-.847-.052-.29-.023-.395-.13-.47-.13-.043 0-.086.138-.107.202-.02.086-.235 1.006-.235 1.11 0 .065.022.1.053.1.043 0 .077-.022.107-.107.032-.074.064-.15.184-.334.17-.255.428-.33 1.09-.342l1.587-.02v4.524c0 1.025 0 1.87-.055 2.32-.043.31-.096.546-.31.59a1.702 1.702 0 01-.322.04c-.064 0-.085.032-.085.065 0 .063.054.087.17.087.323 0 .998-.034 1.052-.034.05 0 .727.034 1.315.034.116 0 .17-.034.17-.087 0-.033-.02-.064-.085-.064-.096 0-.33-.022-.482-.042-.32-.042-.385-.277-.416-.588-.056-.45-.056-1.295-.056-2.32V.62zm7.904 6.802c-.29.745-.524 1.262-1.05 1.262-.417 0-.727-.492-.727-1.06 0-.16 0-.2-.077-.2-.02 0-.052 0-.074.105a9.346 9.346 0 00-.064 1.335c0 .128.054.205.16.27.204.116.568.18.738.18.568 0 1.082-.556 1.457-1.477l2.622-6.395c.3-.736.48-.908.63-1.004.204-.13.44-.13.516-.13.085 0 .13-.023.13-.076.01-.052-.056-.073-.174-.073-.312 0-.77.032-.835.032-.128 0-.62-.03-1.05-.03-.17 0-.234.02-.244.084 0 .053.054.064.117.064.12 0 .28 0 .407.043.108.054.13.158.13.245l-.163.504c-.276.845-1.455 3.9-2.054 5.4L147.778 1.4c-.17-.363-.268-.693-.268-.822 0-.076.02-.163.14-.214.096-.043.287-.054.407-.054.073 0 .106-.023.106-.076 0-.052-.098-.073-.29-.073-.406 0-.89.032-.994.032-.13 0-.738-.03-1.255-.03-.172 0-.28.008-.28.072 0 .043.023.076.088.076.064 0 .247 0 .406.043.374.106.48.245.77.822l3.182 6.247zm5.912-2.28c0 1.026 0 1.872-.053 2.32-.042.312-.097.547-.31.59a1.692 1.692 0 01-.32.042c-.065 0-.087.03-.087.064 0 .063.056.086.172.086.32 0 .995-.033 1.028-.033.053 0 .727.034 1.316.034.116 0 .17-.033.17-.086 0-.033-.02-.064-.086-.064-.096 0-.332-.022-.482-.042-.32-.043-.386-.278-.418-.59-.053-.448-.053-1.294-.053-2.32V.75c0-.108.023-.18.086-.205.097-.042.28-.063.462-.063.245 0 .898-.042 1.465.535.568.578.6 1.293.6 1.646 0 .983-.81 1.744-1.85 1.744-.225 0-.29.01-.29.096 0 .053.065.076.12.076.052.01.17.01.224.01 1.52 0 2.633-1.027 2.633-2.546 0-.565-.3-1.05-.535-1.273-.172-.158-.652-.607-1.99-.607-.493 0-1.114.03-1.35.03-.087 0-.728-.03-1.21-.03-.118 0-.17.022-.17.085 0 .04.042.064.086.064.097 0 .277.01.363.03.355.073.44.247.46.61.022.342.022.643.022 2.31v1.883zm11.476.8c0 1.148-.898 2.334-2.73 2.334-.244 0-1.337-.064-1.424-.064-.052 0-.727.034-1.047.034-.12 0-.174-.023-.174-.087 0-.034.02-.065.086-.065.097 0 .226-.022.32-.042.214-.043.27-.278.31-.59.056-.448.056-1.294.056-2.32v-1.88c0-1.666 0-1.636-.023-2.31-.01-.362-.182-.544-.417-.598a1.402 1.402 0 00-.332-.043c-.043 0-.086-.024-.086-.065 0-.064.055-.085.172-.085.354 0 1.028.03 1.082.03.052 0 .727-.03 1.048-.03.12 0 .17.022.17.085 0 .04-.04.064-.084.064-.074 0-.14.01-.268.03-.29.054-.376.236-.395.61l-.013 2.545c0 .076.02.096.076.117.064.01.258.043.653.043h.342c1.458 0 2.678.836 2.678 2.288m-.92.473c0-.975-.545-2.405-2.216-2.405-.546 0-.62.095-.61.374v.246c0 .823 0 2.148.013 2.31.03.524.03.675.363.835.29.14.75.16.942.16.577-.002 1.508-.31 1.508-1.52m3.51-3.154c0-1.666 0-1.967.022-2.31.023-.373.107-.556.396-.61a1.63 1.63 0 01.268-.03c.042 0 .086-.023.086-.064 0-.064-.055-.085-.172-.085-.32 0-.994.032-1.05.032-.053 0-.727-.03-1.08-.03-.117 0-.17.02-.17.084 0 .04.042.064.086.064.073 0 .213.01.33.043.235.054.343.235.364.598.02.344.02.645.02 2.312v1.883c0 1.025 0 1.87-.053 2.32-.042.31-.097.546-.31.59a1.682 1.682 0 01-.32.04c-.064 0-.087.032-.087.065 0 .063.056.087.173.087.32 0 .994-.034 1.048-.034.056 0 .73.034 1.317.034.118 0 .172-.034.172-.087 0-.033-.022-.064-.087-.064a5.04 5.04 0 01-.48-.042c-.323-.043-.387-.278-.418-.59-.055-.448-.055-1.294-.055-2.32V3.262zM1.19 18.733c0 1.026 0 1.872-.054 2.322-.043.31-.096.545-.312.59a1.598 1.598 0 01-.32.042c-.066 0-.087.032-.087.063 0 .065.055.086.172.086.32 0 .996-.03 1.027-.03.055 0 .73.03 1.318.03.118 0 .173-.03.173-.087 0-.03-.024-.064-.087-.064a4.47 4.47 0 01-.48-.043c-.322-.044-.388-.278-.42-.59-.052-.45-.052-1.295-.052-2.32v-4.4c0-.104.02-.18.085-.202.097-.04.28-.062.46-.062.248 0 .9-.043 1.47.533.566.58.598 1.296.598 1.65 0 .984-.814 1.744-1.852 1.744-.226 0-.29.01-.29.096 0 .056.064.072.118.072.054.014.172.014.225.014 1.52 0 2.634-1.026 2.634-2.547 0-.568-.3-1.05-.536-1.275-.17-.16-.653-.61-1.99-.61-.495 0-1.115.036-1.35.036-.087 0-.73-.035-1.21-.035-.12 0-.173.022-.173.087 0 .043.043.063.087.063.095 0 .278.01.365.033.353.075.438.245.46.61.02.342.02.642.02 2.31v1.884zm14.08-1.122c0 2.395-1.69 4.374-4.273 4.374-2.934 0-4.154-2.28-4.154-4.204 0-1.732 1.266-4.183 4.22-4.183 2.41 0 4.21 1.52 4.21 4.013m-1.03.3c0-2.567-1.563-3.95-3.254-3.95-1.79 0-3.127 1.178-3.127 3.522 0 2.492 1.5 4.1 3.425 4.1.964 0 2.955-.56 2.955-3.673m2.7-.248c0 2.473 1.563 4.322 4.83 4.322.685 0 1.5-.074 1.927-.246.192-.085.214-.107.278-.31.107-.364.236-1.294.236-1.368 0-.086-.02-.162-.073-.162-.065 0-.087.043-.108.162-.034.19-.173.66-.397.896-.43.44-1.06.537-1.864.537-2.292 0-3.867-1.873-3.867-3.917 0-1.896.675-3.573 3.428-3.573 1.34 0 2.592.447 2.592 1.7 0 .15.01.227.086.227.085 0 .107-.163.107-.673 0-.624.074-1.138.074-1.254 0-.065-.02-.12-.14-.12-.406 0-1.37-.286-2.645-.286-3.405 0-4.466 2.354-4.466 4.065m8.62 0c0 2.473 1.562 4.322 4.828 4.322.686 0 1.5-.074 1.928-.246.194-.085.215-.107.278-.31.108-.364.237-1.294.237-1.368 0-.086-.02-.162-.075-.162-.064 0-.085.043-.106.162-.034.19-.173.66-.398.896-.428.44-1.06.537-1.864.537-2.292 0-3.864-1.873-3.864-3.917 0-1.896.673-3.573 3.426-3.573 1.34 0 2.59.447 2.59 1.7 0 .15.013.227.087.227.086 0 .107-.163.107-.673 0-.624.075-1.138.075-1.254 0-.065-.022-.12-.14-.12-.407 0-1.37-.286-2.645-.286-3.407 0-4.466 2.354-4.466 4.065m9.84 4.107c-.054.353.116.397.255.17l.13-.17.888-1.144c1.33-1.735 2.732-3.412 4.144-5.06.097-.12.15-.057.15.072v3.093c0 1.027 0 1.873-.053 2.323-.042.31-.097.545-.31.59a1.617 1.617 0 01-.32.042c-.066 0-.088.032-.088.063 0 .066.053.087.172.087.32 0 .995-.03 1.05-.03.052 0 .727.03 1.316.03.118 0 .17-.03.17-.087 0-.03-.02-.063-.085-.063a4.47 4.47 0 01-.482-.043c-.32-.044-.385-.278-.418-.59-.052-.45-.052-1.295-.052-2.32v-4.838c.052-.352-.118-.396-.257-.17a146.385 146.385 0 01-5.214 6.387c-.044.056-.098.045-.098-.04 0-3.532 0-5.19.022-5.533.02-.375.106-.557.396-.61.13-.02.193-.032.268-.032.043 0 .085-.02.085-.063 0-.064-.054-.087-.17-.087-.323 0-.997.036-1.05.036-.054 0-.73-.035-1.21-.035-.118 0-.172.022-.172.087 0 .043.043.063.086.063.097 0 .28.01.365.033.352.075.438.245.46.61.02.342 0 .642.02 2.31v4.92zm10.278 0c-.054.353.12.397.257.17l.13-.17c.32-.405.61-.792.888-1.144 1.33-1.735 2.73-3.412 4.144-5.06.096-.12.15-.057.15.072v3.093c0 1.027 0 1.873-.054 2.323-.043.31-.096.545-.31.59a1.617 1.617 0 01-.323.042c-.063 0-.084.032-.084.063 0 .066.054.087.17.087.322 0 .997-.03 1.05-.03.054 0 .728.03 1.317.03.117 0 .17-.03.17-.087 0-.03-.02-.063-.084-.063-.1 0-.334-.02-.484-.043-.32-.044-.384-.278-.418-.59-.053-.45-.053-1.295-.053-2.32v-4.838c.053-.352-.117-.396-.255-.17a144.832 144.832 0 01-5.216 6.387c-.043.056-.096.045-.096-.04 0-3.532 0-5.19.02-5.533.023-.375.11-.556.398-.61.127-.02.19-.032.268-.032.042 0 .085-.02.085-.063 0-.064-.054-.087-.172-.087-.32 0-.996.036-1.05.036-.054 0-.728-.035-1.21-.035-.118 0-.172.022-.172.087 0 .043.044.063.087.063.096 0 .278.01.364.033.353.075.438.246.458.61.023.342 0 .642.023 2.31v4.92zm9.06-4.108c0 2.473 1.563 4.322 4.83 4.322.686 0 1.5-.074 1.927-.246.193-.085.214-.107.28-.31.106-.364.234-1.294.234-1.368 0-.086-.023-.162-.077-.162-.063 0-.085.043-.105.162-.034.19-.173.66-.397.896-.428.44-1.06.537-1.863.537-2.29 0-3.866-1.873-3.866-3.917 0-1.896.675-3.573 3.428-3.573 1.34 0 2.593.447 2.593 1.7 0 .15.01.227.086.227.086 0 .106-.163.106-.673 0-.624.076-1.138.076-1.254 0-.065-.02-.12-.14-.12-.406 0-1.37-.286-2.645-.286-3.406 0-4.465 2.354-4.465 4.065m9.84 1.07c0 1.026 0 1.872-.053 2.322-.044.31-.097.545-.31.59a1.617 1.617 0 01-.323.042c-.063 0-.085.032-.085.063 0 .065.053.086.172.086.32 0 .94-.03 1.026-.03.087 0 .708.03 1.232.03.117 0 .172-.03.172-.087 0-.03-.022-.064-.087-.064-.097 0-.266-.02-.417-.043-.322-.044-.387-.278-.417-.59-.056-.45-.056-1.295-.056-2.32v-1.05h.055c.512.632 2.782 3.082 3.265 3.478.46.364.727.602 1.295.655.234.02.438.02.738.02h.546c.183 0 .236-.03.236-.086 0-.042-.065-.064-.14-.064-.075 0-.384-.02-.663-.14-.515-.216-.696-.386-1.597-1.22-.438-.406-2.666-2.707-2.944-3.017.227-.27 2.088-2.088 2.356-2.347.48-.458.72-.726 1.158-.92a1.6 1.6 0 01.598-.15c.085 0 .108-.02.108-.073s-.043-.076-.16-.076c-.268 0-.975.036-1.027.036-.26 0-.59-.036-.806-.036-.074 0-.13.022-.13.076 0 .044.045.063.1.085.085.032.14.098.14.225 0 .18-.28.46-.58.774-.387.414-2.325 2.382-2.507 2.586h-.043v-.643c0-1.668 0-1.968.022-2.31.02-.376.107-.558.396-.61.13-.022.194-.033.27-.033.04 0 .084-.02.084-.063 0-.063-.054-.086-.172-.086-.32 0-.94.036-1.04.036-.062 0-.694-.036-1.175-.036-.12 0-.173.022-.173.087 0 .044.043.064.085.064.097 0 .278.01.364.033.353.075.44.245.46.61.023.342.023.642.023 2.31v1.885zm15.258-1.122c0 2.395-1.692 4.374-4.274 4.374-2.934 0-4.154-2.28-4.154-4.204 0-1.732 1.265-4.183 4.22-4.183 2.41 0 4.208 1.52 4.208 4.013m-1.027.3c0-2.567-1.564-3.95-3.257-3.95-1.787 0-3.127 1.178-3.127 3.522 0 2.492 1.5 4.1 3.428 4.1.963 0 2.955-.56 2.955-3.673m3.315 3.86c-.052.353.12.397.257.17l.13-.17c.32-.405.61-.792.888-1.144 1.327-1.735 2.73-3.412 4.144-5.06.096-.12.15-.057.15.072v3.093c0 1.027 0 1.873-.055 2.323-.044.31-.097.545-.31.59a1.607 1.607 0 01-.322.042c-.065 0-.086.032-.086.063 0 .066.054.087.17.087.322 0 .996-.03 1.052-.03.053 0 .727.03 1.315.03.117 0 .17-.03.17-.087 0-.03-.02-.063-.085-.063a4.47 4.47 0 01-.48-.043c-.323-.044-.387-.278-.42-.59-.054-.45-.054-1.295-.054-2.32v-4.838c.056-.352-.116-.396-.255-.17a143.485 143.485 0 01-5.215 6.387c-.043.056-.097.045-.097-.04 0-3.532 0-5.19.02-5.533.022-.375.11-.556.397-.61.13-.02.192-.032.268-.032.042 0 .086-.02.086-.063 0-.064-.054-.087-.17-.087-.322 0-.996.036-1.05.036-.054 0-.728-.035-1.21-.035-.117 0-.17.022-.17.087 0 .043.043.063.085.063.096 0 .277.01.363.033.353.075.438.246.46.61.02.342 0 .642.02 2.31v4.92zm17.467-.76l-.025.034c.044.385-.018.846.42.91.148.02.385.042.48.042.065 0 .086.03.086.066 0 .05-.053.084-.172.084-.586 0-1.263-.033-1.315-.033-.053 0-.73.033-1.05.033-.118 0-.17-.022-.17-.084 0-.035.02-.066.087-.066a1.5 1.5 0 00.317-.043c.322-.075.268-.535.343-.91l-.02-.032c-2.54-.18-3.706-1.827-3.706-3.293 0-1.317 1.123-3.146 3.683-3.35l.022-.033c-.032-.31-.128-.64-.343-.694a1.456 1.456 0 00-.334-.042c-.043 0-.086-.02-.086-.065 0-.064.055-.087.172-.087.353 0 1.03.034 1.082.034.053 0 .73-.034 1.05-.034.12 0 .17.022.17.087 0 .044-.04.065-.085.065-.075 0-.14.01-.27.032-.267.052-.34.385-.373.704l.022.034c2.107.16 3.627 1.348 3.627 3.166.002 1.787-1.422 3.243-3.615 3.477m-.976-5.938l-.022-.353c.01-.075-.043-.075-.086-.064-1.53.192-2.688 1.21-2.688 2.933 0 1.74 1.168 2.79 2.668 3.1.054.022.106 0 .106-.095.022-.483.022-1.093.022-1.863v-3.66zm.965 5.64c.824-.02 2.677-.65 2.677-2.908 0-1.684-1.093-2.762-2.4-3.072-.084-.02-.16-.042-.213-.02-.076.032-.106.053-.118.32l-.01.182v3.52c0 .802-.01 1.455.02 1.937 0 .02.023.043.045.043m7.076-6.44c0-.077.02-.1.064-.1.215 0 1.178.033 1.243.033.63 0 .89.215.953.354.063.14.097.32.097.404 0 .077.02.12.075.12.052 0 .073-.054.085-.108.02-.127.044-.6.053-.704.033-.302.086-.43.086-.505 0-.053-.02-.116-.063-.116-.044 0-.088.043-.15.064-.045.01-.3.03-.47.04a80.24 80.24 0 01-2.423.026c-.054 0-.727-.036-1.21-.036-.118 0-.17.022-.17.087 0 .044.043.064.085.064.095 0 .276.01.363.033.354.075.418.234.45.493.02.18.03.63.03 2.426v1.885c0 1.307-.02 2.172-.074 2.452-.062.31-.115.406-.286.46a1.124 1.124 0 01-.322.043c-.065 0-.086.032-.086.063 0 .066.054.087.17.087.238 0 .773-.03 1.05-.03.313 0 1.03.062 2.647.062.418 0 .503 0 .58-.277.052-.225.138-.953.138-1.038 0-.074 0-.16-.064-.16-.052 0-.072.04-.095.16-.076.436-.203.65-.48.77-.278.117-.75.117-1.03.117-1.05 0-1.242-.17-1.242-.878v-2.77c0-.044.02-.076.076-.076.182 0 1.242.02 1.53.053.418.042.517.225.557.376a1.1 1.1 0 01.043.35c0 .056.023.098.076.098.064 0 .075-.086.075-.202 0-.527.127-1.24.127-1.285 0-.063-.02-.085-.052-.085-.043 0-.086.052-.16.138-.098.107-.248.128-.507.15-.244.022-1.562.022-1.7.022-.055 0-.065-.03-.065-.107v-2.953zm13.045 7.092l-.248 1.24c-.02.098-.042.14-.105.14-.055 0-.086-.032-.076-.183v-.118c0-.33-.03-.664-.92-.664l-1.627-.01h-2.87l-1.843.01c-.726.012-.804.13-.876.388-.044.18-.023.363-.023.467 0 .09-.02.11-.062.11-.033 0-.065-.032-.086-.097-.056-.106-.216-1.154-.226-1.238 0-.067-.012-.207.032-.207.085 0 .256.14.546.128.567-.007.76-.275.94-.747l2.626-6.677c.13-.353.184-.416.245-.416.067 0 .108.054.258.385.172.407 1.938 4.836 2.615 6.484.117.244.255.503.426.715a.958.958 0 00.665.248c.33-.023.513-.087.576-.087.056 0 .045.064.035.13m-2.294-.035c0-.007-.01-.02-.01-.03l-2.376-6.065c-.055-.162-.172-.15-.227.01l-1.862 5.34a2.26 2.26 0 00-.148.716v.032c1.167.078 2.774.066 4.624 0m5.152-7.06c0-.076.02-.098.064-.098.215 0 1.177.032 1.24.032.633 0 .89.215.956.354.064.14.095.32.095.404 0 .077.025.12.076.12.052 0 .072-.054.084-.108.024-.127.044-.6.053-.704.032-.302.086-.43.086-.505 0-.053-.02-.116-.063-.116s-.087.043-.15.064c-.042.01-.3.03-.47.04-.172.013-1.265.026-2.42.026-.055 0-.73-.036-1.212-.036-.118 0-.172.022-.172.087 0 .044.044.064.086.064.098 0 .28.01.366.033.353.075.416.234.447.493.022.18.034.63.034 2.426v1.885c0 1.307-.024 2.172-.077 2.452-.063.31-.117.406-.29.46a1.108 1.108 0 01-.32.043c-.063 0-.087.032-.087.063 0 .066.055.087.173.087.234 0 .77-.03 1.05-.03.31 0 1.027.062 2.644.062.418 0 .503 0 .58-.277.052-.225.137-.953.137-1.038 0-.074 0-.16-.062-.16-.054 0-.074.04-.098.16-.075.436-.203.65-.48.77-.28.117-.75.117-1.03.117-1.048 0-1.24-.17-1.24-.878v-2.77c0-.044.02-.076.073-.076.183 0 1.244.02 1.53.053.42.042.518.225.56.376.044.138.044.245.044.35 0 .056.02.098.073.098.063 0 .074-.086.074-.202 0-.527.13-1.24.13-1.285 0-.063-.02-.085-.054-.085-.044 0-.087.052-.16.138-.097.107-.248.128-.506.15-.244.022-1.562.022-1.7.022-.055 0-.065-.03-.065-.107v-2.953zm6.233 4.46c0 1.026 0 1.872-.053 2.322-.04.31-.095.545-.31.59a1.617 1.617 0 01-.32.042c-.066 0-.085.032-.085.063 0 .065.052.086.17.086.322 0 .995-.03 1.028-.03.052 0 .73.03 1.317.03.118 0 .17-.03.17-.087 0-.03-.02-.064-.085-.064-.096 0-.33-.02-.48-.043-.322-.044-.388-.278-.418-.59-.056-.45-.056-1.295-.056-2.32v-4.4c0-.104.024-.18.086-.202.1-.04.28-.062.462-.062.248 0 .9-.043 1.467.533.567.58.6 1.296.6 1.65 0 .984-.813 1.744-1.852 1.744-.226 0-.288.01-.288.096 0 .056.063.072.117.072.052.014.17.014.223.014 1.523 0 2.636-1.026 2.636-2.547 0-.568-.302-1.05-.537-1.275-.173-.16-.654-.61-1.99-.61-.494 0-1.115.036-1.35.036-.086 0-.73-.035-1.21-.035-.118 0-.172.022-.172.087 0 .043.044.063.088.063.093 0 .276.01.36.033.355.075.44.245.463.61.02.342.02.642.02 2.31v1.884zm12.54 3.017c0 .065-.097.086-.214.086-.16 0-.942 0-1.684-.02-.2-.012-.32-.012-.32-.078 0-.042.044-.072.076-.072.02 0 .085-.056.085-.15 0-.032 0-.098-.02-.142l-.997-2.63c-.022-.042-.043-.065-.096-.065h-2.304c-.054 0-.085.03-.105.084l-.642 1.894a2.27 2.27 0 00-.148.717c0 .216.224.313.406.313h.106c.076 0 .107.02.107.063 0 .067-.066.088-.16.088-.26 0-.72-.03-.838-.03-.117 0-.705.03-1.21.03-.14 0-.203-.02-.203-.087 0-.04.043-.062.096-.062.075 0 .226-.01.313-.02.49-.067.704-.474.897-1.01l2.43-6.643c.13-.354.172-.417.237-.417.063 0 .105.054.235.385.16.407 1.842 4.825 2.494 6.45.385.953.693 1.124.92 1.19a1.4 1.4 0 00.43.063c.064 0 .107.01.107.063m-3.267-3.53l-1.018-2.89c-.03-.086-.052-.117-.083-.117-.023 0-.055.045-.075.117l-.943 2.89c-.02.053 0 .075.032.075h2.045c.053 0 .053-.03.043-.075m10.31 2.835c-.018.148-.03.276-.074.374-1.466.073-2.935.095-4.4 0a.882.882 0 01-.086-.375c-.055-.45-.055-1.296-.055-2.322 0-3.56 0-3.852.02-4.194.023-.376.108-.557.398-.61.126-.022.19-.033.266-.033.044 0 .086-.02.086-.063 0-.064-.054-.087-.172-.087-.32 0-.996.036-1.05.036-.053 0-.73-.036-1.21-.036-.115 0-.172.022-.172.087 0 .043.044.063.086.063.098 0 .28.01.366.033.352.075.438.246.46.61.02.342.02.642.02 2.31v1.884c0 1.026 0 1.872-.054 2.322-.043.31-.096.545-.312.59a1.598 1.598 0 01-.32.042c-.064 0-.087.032-.087.063 0 .067.055.088.172.088.32 0 .997-.03 1.05-.03.044 0 .45.02.91.03h3.897c.336-.01.72-.03.763-.03h.512c.87 0 .836.362.836.693v.117c-.013.15.02.185.072.185.066 0 .088-.044.11-.142.02-.116.172-.91.233-1.23.013-.062.026-.128-.03-.128-.064 0-.234.065-.555.086-.15.013-.73.204-.708-.664-.02-.48-.02-1.176-.02-1.99v-1.883c0-1.667 0-1.967.02-2.31.02-.375.107-.556.396-.61.13-.02.192-.032.267-.032.045 0 .086-.02.086-.063 0-.064-.055-.087-.17-.087-.323 0-.997.036-1.05.036-.054 0-.73-.036-1.21-.036-.117 0-.174.022-.174.087 0 .043.044.063.087.063.094 0 .277.01.364.033.35.076.438.247.46.61.02.343.02.643.02 2.31v1.885c.005 1.024.005 1.87-.05 2.32m4.765.714c-.054.353.118.397.256.17l.13-.17.888-1.144c1.33-1.735 2.732-3.412 4.146-5.06.096-.12.15-.057.15.072v3.093c0 1.027 0 1.873-.055 2.323-.044.31-.096.545-.31.59a1.627 1.627 0 01-.323.042c-.063 0-.086.032-.086.063 0 .066.056.087.173.087.32 0 .994-.03 1.05-.03.053 0 .728.03 1.315.03.116 0 .17-.03.17-.087 0-.03-.02-.063-.085-.063a4.29 4.29 0 01-.48-.043c-.32-.044-.386-.278-.42-.59-.05-.45-.05-1.295-.05-2.32v-4.838c.05-.352-.118-.396-.26-.17a144.112 144.112 0 01-5.215 6.387c-.044.056-.096.045-.096-.04 0-3.532 0-5.19.02-5.533.023-.375.11-.557.397-.61.128-.02.193-.032.268-.032.044 0 .086-.02.086-.063 0-.064-.055-.087-.17-.087-.32 0-.994.036-1.05.036-.056 0-.728-.035-1.208-.035-.122 0-.174.022-.174.087 0 .043.043.063.087.063.095 0 .275.01.36.033.355.075.44.245.465.61.02.342 0 .642.02 2.31v4.92zm10.352 0c-.055.353.118.397.26.17l.126-.17.89-1.144c1.326-1.735 2.732-3.412 4.146-5.06.094-.12.146-.057.146.072v3.093c0 1.027 0 1.873-.053 2.323-.042.31-.094.545-.31.59a1.598 1.598 0 01-.32.042c-.066 0-.086.032-.086.063 0 .066.055.087.172.087.32 0 .995-.03 1.05-.03.052 0 .728.03 1.316.03.12 0 .172-.03.172-.087 0-.03-.022-.063-.086-.063-.097 0-.332-.02-.483-.043-.32-.044-.382-.278-.415-.59-.052-.45-.052-1.295-.052-2.32v-4.838c.052-.352-.12-.396-.262-.17a142.33 142.33 0 01-5.21 6.387c-.043.056-.098.045-.098-.04 0-3.532 0-5.19.02-5.533.022-.375.107-.557.398-.61.128-.02.193-.032.268-.032.043 0 .086-.02.086-.063 0-.064-.054-.087-.172-.087-.32 0-.997.036-1.05.036-.053 0-.73-.035-1.21-.035-.118 0-.174.022-.174.087 0 .043.046.063.088.063.097 0 .28.01.365.033.354.075.44.245.46.61.022.342 0 .642.022 2.31v4.92zm-112.64-9.834c.097-.137.126-.25.04-.286-.08-.033-.138.044-.3.204-.44.45-.896.537-1.094.537-.12 0-.716.022-.796-.693-.03-.3.06-.508-.148-.508-.3 0-.528.463-.528.737 0 .398.42.815 1.263.82.597.004 1.234-.348 1.562-.81m36.2 0c.097-.138.126-.252.04-.287-.078-.033-.14.044-.297.204-.443.45-.9.537-1.098.537-.12 0-.716.022-.794-.693-.03-.3.06-.508-.15-.508-.298 0-.528.463-.528.737 0 .398.42.815 1.265.82.597.004 1.234-.348 1.562-.81"/></svg>